<?xml version="1.0" encoding="UTF-8" standalone="no"?><svg xmlns="http://www.w3.org/2000/svg" xmlns:xlink="http://www.w3.org/1999/xlink" contentScriptType="application/ecmascript" contentStyleType="text/css" height="697px" preserveAspectRatio="none" style="width:779px;height:697px;background:#FFFFFF;" version="1.1" viewBox="0 0 779 697" width="779px" zoomAndPan="magnify"><defs><filter height="300%" id="f1tjd958z1xtez" width="300%" x="-1" y="-1"><feGaussianBlur result="blurOut" stdDeviation="2.0"/><feColorMatrix in="blurOut" result="blurOut2" type="matrix" values="0 0 0 0 0 0 0 0 0 0 0 0 0 0 0 0 0 0 .4 0"/><feOffset dx="4.0" dy="4.0" in="blurOut2" result="blurOut3"/><feBlend in="SourceGraphic" in2="blurOut3" mode="normal"/></filter></defs><g><!--MD5=[99b8db98afdc2c8404e39242ef4c1e65]
class progect1.Platform--><rect codeLine="4" fill="#FEFECE" filter="url(#f1tjd958z1xtez)" height="158.6875" id="progect1.Platform" style="stroke:#A80036;stroke-width:1.5;" width="388" x="89" y="525"/><ellipse cx="255.75" cy="541" fill="#ADD1B2" rx="11" ry="11" style="stroke:#A80036;stroke-width:1.0;"/><path d="M257.75,537.5 Q257.9531,537 258.1875,536.75 Q258.4219,536.5 258.6875,536.5 Q259.1563,536.5 259.4531,536.7813 Q259.75,537.0625 259.75,537.7188 L259.75,539.2813 Q259.75,539.9375 259.4688,540.2188 Q259.1875,540.5 258.75,540.5 Q258.3594,540.5 258.1094,540.3281 Q257.8594,540.1563 257.75,539.7031 Q257.7031,539.3906 257.5313,539.2188 Q257.2188,538.8906 256.6563,538.7031 Q256.0938,538.5 255.5313,538.5 Q254.8281,538.5 254.2344,538.7813 Q253.6563,539.0625 253.2031,539.6875 Q252.75,540.3125 252.75,541.1719 L252.75,542.0938 Q252.75,543.125 253.5938,543.8125 Q254.4375,544.5 255.9375,544.5 Q256.8281,544.5 257.4531,544.2969 Q257.8125,544.1875 258.2188,543.8281 Q258.4844,543.625 258.625,543.5625 Q258.7656,543.5 258.9375,543.5 Q259.2656,543.5 259.5,543.7656 Q259.75,544.0156 259.75,544.375 Q259.75,544.7188 259.4063,545.125 Q258.9063,545.7188 258.1094,546.0469 Q257.0625,546.5 255.7813,546.5 Q254.2813,546.5 253.0781,545.9063 Q252.1094,545.4375 251.4219,544.4219 Q250.75,543.4063 250.75,542.2031 L250.75,541.1094 Q250.75,539.8594 251.3438,538.7656 Q251.9531,537.6719 253,537.0938 Q254.0625,536.5 255.25,536.5 Q255.9688,536.5 256.5938,536.75 Q257.2188,537 257.75,537.5 Z " fill="#000000"/><text fill="#000000" font-family="sans-serif" font-size="12" lengthAdjust="spacing" textLength="46" x="276.25" y="545.9102">progect1.Platform</text><line style="stroke:#A80036;stroke-width:1.5;" x1="90" x2="476" y1="557" y2="557"/><ellipse cx="100" cy="568" fill="none" rx="3" ry="3" style="stroke:#038048;stroke-width:1.0;"/><text fill="#000000" font-family="sans-serif" font-size="11" lengthAdjust="spacing" textLength="162" x="109" y="572.4189">Map&lt;progect1.Country, Set&lt;progect1.Product&gt;&gt; sup</text><line style="stroke:#A80036;stroke-width:1.5;" x1="90" x2="476" y1="578.8359" y2="578.8359"/><ellipse cx="100" cy="589.8359" fill="#84BE84" rx="3" ry="3" style="stroke:#038048;stroke-width:1.0;"/><text fill="#000000" font-family="sans-serif" font-size="11" lengthAdjust="spacing" textLength="123" x="109" y="594.2549">getCountry(List&lt;String&gt; l)</text><ellipse cx="100" cy="603.6719" fill="#84BE84" rx="3" ry="3" style="stroke:#038048;stroke-width:1.0;"/><text fill="#000000" font-family="sans-serif" font-size="11" lengthAdjust="spacing" textLength="134" x="109" y="608.0908">List&lt;progect1.Country&gt; country_list()</text><ellipse cx="100" cy="617.5078" fill="#84BE84" rx="3" ry="3" style="stroke:#038048;stroke-width:1.0;"/><text fill="#000000" font-family="sans-serif" font-size="11" lengthAdjust="spacing" textLength="297" x="109" y="621.9268">progect1.Country getKey(Map&lt;progect1.Country, Set&lt;progect1.Product&gt;&gt; sup, progect1.Product p)</text><ellipse cx="100" cy="631.3438" fill="#84BE84" rx="3" ry="3" style="stroke:#038048;stroke-width:1.0;"/><text fill="#000000" font-family="sans-serif" font-size="11" lengthAdjust="spacing" textLength="245" x="109" y="635.7627">numMinPaisesComQuantidadeProdSuperiorQ(int V)</text><ellipse cx="100" cy="645.1797" fill="#84BE84" rx="3" ry="3" style="stroke:#038048;stroke-width:1.0;"/><text fill="#000000" font-family="sans-serif" font-size="11" lengthAdjust="spacing" textLength="264" x="109" y="649.5986">numMaxAnosConsecutivosCrescimentoFrutoF(String i)</text><ellipse cx="100" cy="659.0156" fill="#84BE84" rx="3" ry="3" style="stroke:#038048;stroke-width:1.0;"/><text fill="#000000" font-family="sans-serif" font-size="11" lengthAdjust="spacing" textLength="362" x="109" y="663.4346">nMaxAnosConsecutivosCrescimentoFrutoFnoPaisX(Map&lt;progect1.Year, progect1.Value&gt; list)</text><ellipse cx="100" cy="672.8516" fill="#84BE84" rx="3" ry="3" style="stroke:#038048;stroke-width:1.0;"/><text fill="#000000" font-family="sans-serif" font-size="11" lengthAdjust="spacing" textLength="248" x="109" y="677.2705">diferenceMaximaDasQuantidades(progect1.Country country)</text><!--MD5=[deb4e1f6eb1e3c1256fdb830f96abfbb]
class progect1.Country--><rect codeLine="15" fill="#FEFECE" filter="url(#f1tjd958z1xtez)" height="89.5078" id="progect1.Country" style="stroke:#A80036;stroke-width:1.5;" width="192" x="64" y="327"/><ellipse cx="134.75" cy="343" fill="#ADD1B2" rx="11" ry="11" style="stroke:#A80036;stroke-width:1.0;"/><path d="M136.75,339.5 Q136.9531,339 137.1875,338.75 Q137.4219,338.5 137.6875,338.5 Q138.1563,338.5 138.4531,338.7813 Q138.75,339.0625 138.75,339.7188 L138.75,341.2813 Q138.75,341.9375 138.4688,342.2188 Q138.1875,342.5 137.75,342.5 Q137.3594,342.5 137.1094,342.3281 Q136.8594,342.1563 136.75,341.7031 Q136.7031,341.3906 136.5313,341.2188 Q136.2188,340.8906 135.6563,340.7031 Q135.0938,340.5 134.5313,340.5 Q133.8281,340.5 133.2344,340.7813 Q132.6563,341.0625 132.2031,341.6875 Q131.75,342.3125 131.75,343.1719 L131.75,344.0938 Q131.75,345.125 132.5938,345.8125 Q133.4375,346.5 134.9375,346.5 Q135.8281,346.5 136.4531,346.2969 Q136.8125,346.1875 137.2188,345.8281 Q137.4844,345.625 137.625,345.5625 Q137.7656,345.5 137.9375,345.5 Q138.2656,345.5 138.5,345.7656 Q138.75,346.0156 138.75,346.375 Q138.75,346.7188 138.4063,347.125 Q137.9063,347.7188 137.1094,348.0469 Q136.0625,348.5 134.7813,348.5 Q133.2813,348.5 132.0781,347.9063 Q131.1094,347.4375 130.4219,346.4219 Q129.75,345.4063 129.75,344.2031 L129.75,343.1094 Q129.75,341.8594 130.3438,340.7656 Q130.9531,339.6719 132,339.0938 Q133.0625,338.5 134.25,338.5 Q134.9688,338.5 135.5938,338.75 Q136.2188,339 136.75,339.5 Z " fill="#000000"/><text fill="#000000" font-family="sans-serif" font-size="12" lengthAdjust="spacing" textLength="42" x="155.25" y="347.9102">progect1.Country</text><line style="stroke:#A80036;stroke-width:1.5;" x1="65" x2="255" y1="359" y2="359"/><rect fill="none" height="6" style="stroke:#C82930;stroke-width:1.0;" width="6" x="72" y="367"/><text fill="#000000" font-family="sans-serif" font-size="11" lengthAdjust="spacing" textLength="47" x="84" y="374.4189">areaCode</text><rect fill="none" height="6" style="stroke:#C82930;stroke-width:1.0;" width="6" x="72" y="380.8359"/><text fill="#000000" font-family="sans-serif" font-size="11" lengthAdjust="spacing" textLength="53" x="84" y="388.2549">String area</text><line style="stroke:#A80036;stroke-width:1.5;" x1="65" x2="255" y1="394.6719" y2="394.6719"/><ellipse cx="75" cy="405.6719" fill="#84BE84" rx="3" ry="3" style="stroke:#038048;stroke-width:1.0;"/><text fill="#000000" font-family="sans-serif" font-size="11" lengthAdjust="spacing" textLength="166" x="84" y="410.0908">progect1.Country(int areaCode, String area)</text><!--MD5=[72136138052d025cffdce3c22fbd185f]
class progect1.Product--><rect codeLine="21" fill="#FEFECE" filter="url(#f1tjd958z1xtez)" height="186.3594" id="progect1.Product" style="stroke:#A80036;stroke-width:1.5;" width="230" x="291" y="279"/><ellipse cx="380.75" cy="295" fill="#ADD1B2" rx="11" ry="11" style="stroke:#A80036;stroke-width:1.0;"/><path d="M382.75,291.5 Q382.9531,291 383.1875,290.75 Q383.4219,290.5 383.6875,290.5 Q384.1563,290.5 384.4531,290.7813 Q384.75,291.0625 384.75,291.7188 L384.75,293.2813 Q384.75,293.9375 384.4688,294.2188 Q384.1875,294.5 383.75,294.5 Q383.3594,294.5 383.1094,294.3281 Q382.8594,294.1563 382.75,293.7031 Q382.7031,293.3906 382.5313,293.2188 Q382.2188,292.8906 381.6563,292.7031 Q381.0938,292.5 380.5313,292.5 Q379.8281,292.5 379.2344,292.7813 Q378.6563,293.0625 378.2031,293.6875 Q377.75,294.3125 377.75,295.1719 L377.75,296.0938 Q377.75,297.125 378.5938,297.8125 Q379.4375,298.5 380.9375,298.5 Q381.8281,298.5 382.4531,298.2969 Q382.8125,298.1875 383.2188,297.8281 Q383.4844,297.625 383.625,297.5625 Q383.7656,297.5 383.9375,297.5 Q384.2656,297.5 384.5,297.7656 Q384.75,298.0156 384.75,298.375 Q384.75,298.7188 384.4063,299.125 Q383.9063,299.7188 383.1094,300.0469 Q382.0625,300.5 380.7813,300.5 Q379.2813,300.5 378.0781,299.9063 Q377.1094,299.4375 376.4219,298.4219 Q375.75,297.4063 375.75,296.2031 L375.75,295.1094 Q375.75,293.8594 376.3438,292.7656 Q376.9531,291.6719 378,291.0938 Q379.0625,290.5 380.25,290.5 Q380.9688,290.5 381.5938,290.75 Q382.2188,291 382.75,291.5 Z " fill="#000000"/><text fill="#000000" font-family="sans-serif" font-size="12" lengthAdjust="spacing" textLength="42" x="401.25" y="299.9102">progect1.Product</text><line style="stroke:#A80036;stroke-width:1.5;" x1="292" x2="520" y1="311" y2="311"/><rect fill="none" height="6" style="stroke:#C82930;stroke-width:1.0;" width="6" x="299" y="319"/><text fill="#000000" font-family="sans-serif" font-size="11" lengthAdjust="spacing" textLength="49" x="311" y="326.4189">progect1.Year year</text><rect fill="none" height="6" style="stroke:#C82930;stroke-width:1.0;" width="6" x="299" y="332.8359"/><text fill="#000000" font-family="sans-serif" font-size="11" lengthAdjust="spacing" textLength="57" x="311" y="340.2549">progect1.Value value</text><rect fill="none" height="6" style="stroke:#C82930;stroke-width:1.0;" width="6" x="299" y="346.6719"/><text fill="#000000" font-family="sans-serif" font-size="11" lengthAdjust="spacing" textLength="41" x="311" y="354.0908">progect1.Item item</text><line style="stroke:#A80036;stroke-width:1.5;" x1="292" x2="520" y1="360.5078" y2="360.5078"/><ellipse cx="302" cy="371.5078" fill="#84BE84" rx="3" ry="3" style="stroke:#038048;stroke-width:1.0;"/><text fill="#000000" font-family="sans-serif" font-size="11" lengthAdjust="spacing" textLength="204" x="311" y="375.9268">progect1.Product(Year year, progect1.Value value, progect1.Item item)</text><ellipse cx="302" cy="385.3438" fill="#84BE84" rx="3" ry="3" style="stroke:#038048;stroke-width:1.0;"/><text fill="#000000" font-family="sans-serif" font-size="11" lengthAdjust="spacing" textLength="47" x="311" y="389.7627">getYear()</text><ellipse cx="302" cy="399.1797" fill="#84BE84" rx="3" ry="3" style="stroke:#038048;stroke-width:1.0;"/><text fill="#000000" font-family="sans-serif" font-size="11" lengthAdjust="spacing" textLength="51" x="311" y="403.5986">getValue()</text><ellipse cx="302" cy="413.0156" fill="#84BE84" rx="3" ry="3" style="stroke:#038048;stroke-width:1.0;"/><text fill="#000000" font-family="sans-serif" font-size="11" lengthAdjust="spacing" textLength="42" x="311" y="417.4346">getItem()</text><ellipse cx="302" cy="426.8516" fill="#84BE84" rx="3" ry="3" style="stroke:#038048;stroke-width:1.0;"/><text fill="#000000" font-family="sans-serif" font-size="11" lengthAdjust="spacing" textLength="96" x="311" y="431.2705">setYear(progect1.Year year)</text><ellipse cx="302" cy="440.6875" fill="#84BE84" rx="3" ry="3" style="stroke:#038048;stroke-width:1.0;"/><text fill="#000000" font-family="sans-serif" font-size="11" lengthAdjust="spacing" textLength="108" x="311" y="445.1064">setValue(progect1.Value value)</text><ellipse cx="302" cy="454.5234" fill="#84BE84" rx="3" ry="3" style="stroke:#038048;stroke-width:1.0;"/><text fill="#000000" font-family="sans-serif" font-size="11" lengthAdjust="spacing" textLength="83" x="311" y="458.9424">setItem(progect1.Item item)</text><!--MD5=[976f6379d120c95ebed0648a58125170]
class progect1.Product_comparator--><rect codeLine="34" fill="#FEFECE" filter="url(#f1tjd958z1xtez)" height="61.8359" id="progect1.Product_comparator" style="stroke:#A80036;stroke-width:1.5;" width="186" x="7" y="143"/><ellipse cx="40.9" cy="159" fill="#ADD1B2" rx="11" ry="11" style="stroke:#A80036;stroke-width:1.0;"/><path d="M42.9,155.5 Q43.1031,155 43.3375,154.75 Q43.5719,154.5 43.8375,154.5 Q44.3063,154.5 44.6031,154.7813 Q44.9,155.0625 44.9,155.7188 L44.9,157.2813 Q44.9,157.9375 44.6188,158.2188 Q44.3375,158.5 43.9,158.5 Q43.5094,158.5 43.2594,158.3281 Q43.0094,158.1563 42.9,157.7031 Q42.8531,157.3906 42.6813,157.2188 Q42.3688,156.8906 41.8063,156.7031 Q41.2438,156.5 40.6813,156.5 Q39.9781,156.5 39.3844,156.7813 Q38.8063,157.0625 38.3531,157.6875 Q37.9,158.3125 37.9,159.1719 L37.9,160.0938 Q37.9,161.125 38.7438,161.8125 Q39.5875,162.5 41.0875,162.5 Q41.9781,162.5 42.6031,162.2969 Q42.9625,162.1875 43.3688,161.8281 Q43.6344,161.625 43.775,161.5625 Q43.9156,161.5 44.0875,161.5 Q44.4156,161.5 44.65,161.7656 Q44.9,162.0156 44.9,162.375 Q44.9,162.7188 44.5563,163.125 Q44.0563,163.7188 43.2594,164.0469 Q42.2125,164.5 40.9313,164.5 Q39.4313,164.5 38.2281,163.9063 Q37.2594,163.4375 36.5719,162.4219 Q35.9,161.4063 35.9,160.2031 L35.9,159.1094 Q35.9,157.8594 36.4938,156.7656 Q37.1031,155.6719 38.15,155.0938 Q39.2125,154.5 40.4,154.5 Q41.1188,154.5 41.7438,154.75 Q42.3688,155 42.9,155.5 Z " fill="#000000"/><text fill="#000000" font-family="sans-serif" font-size="12" lengthAdjust="spacing" textLength="112" x="59.1" y="163.9102">progect1.Product_comparator</text><line style="stroke:#A80036;stroke-width:1.5;" x1="8" x2="192" y1="175" y2="175"/><line style="stroke:#A80036;stroke-width:1.5;" x1="8" x2="192" y1="183" y2="183"/><ellipse cx="18" cy="194" fill="#84BE84" rx="3" ry="3" style="stroke:#038048;stroke-width:1.0;"/><text fill="#000000" font-family="sans-serif" font-size="11" lengthAdjust="spacing" textLength="160" x="27" y="198.4189">compare(progect1.Product p1, progect1.Product p2)</text><!--MD5=[44a1b4afaef76c16e6c9ec4990ad0c8d]
class progect1.Item--><rect codeLine="38" fill="#FEFECE" filter="url(#f1tjd958z1xtez)" height="89.5078" id="progect1.Item" style="stroke:#A80036;stroke-width:1.5;" width="167" x="228.5" y="129"/><ellipse cx="295.75" cy="145" fill="#ADD1B2" rx="11" ry="11" style="stroke:#A80036;stroke-width:1.0;"/><path d="M297.75,141.5 Q297.9531,141 298.1875,140.75 Q298.4219,140.5 298.6875,140.5 Q299.1563,140.5 299.4531,140.7813 Q299.75,141.0625 299.75,141.7188 L299.75,143.2813 Q299.75,143.9375 299.4688,144.2188 Q299.1875,144.5 298.75,144.5 Q298.3594,144.5 298.1094,144.3281 Q297.8594,144.1563 297.75,143.7031 Q297.7031,143.3906 297.5313,143.2188 Q297.2188,142.8906 296.6563,142.7031 Q296.0938,142.5 295.5313,142.5 Q294.8281,142.5 294.2344,142.7813 Q293.6563,143.0625 293.2031,143.6875 Q292.75,144.3125 292.75,145.1719 L292.75,146.0938 Q292.75,147.125 293.5938,147.8125 Q294.4375,148.5 295.9375,148.5 Q296.8281,148.5 297.4531,148.2969 Q297.8125,148.1875 298.2188,147.8281 Q298.4844,147.625 298.625,147.5625 Q298.7656,147.5 298.9375,147.5 Q299.2656,147.5 299.5,147.7656 Q299.75,148.0156 299.75,148.375 Q299.75,148.7188 299.4063,149.125 Q298.9063,149.7188 298.1094,150.0469 Q297.0625,150.5 295.7813,150.5 Q294.2813,150.5 293.0781,149.9063 Q292.1094,149.4375 291.4219,148.4219 Q290.75,147.4063 290.75,146.2031 L290.75,145.1094 Q290.75,143.8594 291.3438,142.7656 Q291.9531,141.6719 293,141.0938 Q294.0625,140.5 295.25,140.5 Q295.9688,140.5 296.5938,140.75 Q297.2188,141 297.75,141.5 Z " fill="#000000"/><text fill="#000000" font-family="sans-serif" font-size="12" lengthAdjust="spacing" textLength="24" x="316.25" y="149.9102">progect1.Item</text><line style="stroke:#A80036;stroke-width:1.5;" x1="229.5" x2="394.5" y1="161" y2="161"/><rect fill="none" height="6" style="stroke:#C82930;stroke-width:1.0;" width="6" x="236.5" y="169"/><text fill="#000000" font-family="sans-serif" font-size="11" lengthAdjust="spacing" textLength="61" x="248.5" y="176.4189">int itemCode;</text><rect fill="none" height="6" style="stroke:#C82930;stroke-width:1.0;" width="6" x="236.5" y="182.8359"/><text fill="#000000" font-family="sans-serif" font-size="11" lengthAdjust="spacing" textLength="53" x="248.5" y="190.2549">String item;</text><line style="stroke:#A80036;stroke-width:1.5;" x1="229.5" x2="394.5" y1="196.6719" y2="196.6719"/><ellipse cx="239.5" cy="207.6719" fill="#84BE84" rx="3" ry="3" style="stroke:#038048;stroke-width:1.0;"/><text fill="#000000" font-family="sans-serif" font-size="11" lengthAdjust="spacing" textLength="141" x="248.5" y="212.0908">progect1.Item(int itemCode, String item)</text><!--MD5=[ff3d20c1112759d46dde2fcead238479]
class progect1.Value--><rect codeLine="44" fill="#FEFECE" filter="url(#f1tjd958z1xtez)" height="89.5078" id="progect1.Value" style="stroke:#A80036;stroke-width:1.5;" width="139" x="430.5" y="129"/><ellipse cx="480.25" cy="145" fill="#ADD1B2" rx="11" ry="11" style="stroke:#A80036;stroke-width:1.0;"/><path d="M482.25,141.5 Q482.4531,141 482.6875,140.75 Q482.9219,140.5 483.1875,140.5 Q483.6563,140.5 483.9531,140.7813 Q484.25,141.0625 484.25,141.7188 L484.25,143.2813 Q484.25,143.9375 483.9688,144.2188 Q483.6875,144.5 483.25,144.5 Q482.8594,144.5 482.6094,144.3281 Q482.3594,144.1563 482.25,143.7031 Q482.2031,143.3906 482.0313,143.2188 Q481.7188,142.8906 481.1563,142.7031 Q480.5938,142.5 480.0313,142.5 Q479.3281,142.5 478.7344,142.7813 Q478.1563,143.0625 477.7031,143.6875 Q477.25,144.3125 477.25,145.1719 L477.25,146.0938 Q477.25,147.125 478.0938,147.8125 Q478.9375,148.5 480.4375,148.5 Q481.3281,148.5 481.9531,148.2969 Q482.3125,148.1875 482.7188,147.8281 Q482.9844,147.625 483.125,147.5625 Q483.2656,147.5 483.4375,147.5 Q483.7656,147.5 484,147.7656 Q484.25,148.0156 484.25,148.375 Q484.25,148.7188 483.9063,149.125 Q483.4063,149.7188 482.6094,150.0469 Q481.5625,150.5 480.2813,150.5 Q478.7813,150.5 477.5781,149.9063 Q476.6094,149.4375 475.9219,148.4219 Q475.25,147.4063 475.25,146.2031 L475.25,145.1094 Q475.25,143.8594 475.8438,142.7656 Q476.4531,141.6719 477.5,141.0938 Q478.5625,140.5 479.75,140.5 Q480.4688,140.5 481.0938,140.75 Q481.7188,141 482.25,141.5 Z " fill="#000000"/><text fill="#000000" font-family="sans-serif" font-size="12" lengthAdjust="spacing" textLength="31" x="500.75" y="149.9102">progect1.Value</text><line style="stroke:#A80036;stroke-width:1.5;" x1="431.5" x2="568.5" y1="161" y2="161"/><rect fill="none" height="6" style="stroke:#C82930;stroke-width:1.0;" width="6" x="438.5" y="169"/><text fill="#000000" font-family="sans-serif" font-size="11" lengthAdjust="spacing" textLength="48" x="450.5" y="176.4189">String unit</text><rect fill="none" height="6" style="stroke:#C82930;stroke-width:1.0;" width="6" x="438.5" y="182.8359"/><text fill="#000000" font-family="sans-serif" font-size="11" lengthAdjust="spacing" textLength="40" x="450.5" y="190.2549">int value</text><line style="stroke:#A80036;stroke-width:1.5;" x1="431.5" x2="568.5" y1="196.6719" y2="196.6719"/><ellipse cx="441.5" cy="207.6719" fill="#84BE84" rx="3" ry="3" style="stroke:#038048;stroke-width:1.0;"/><text fill="#000000" font-family="sans-serif" font-size="11" lengthAdjust="spacing" textLength="113" x="450.5" y="212.0908">progect1.Value(int unit, int value)</text><!--MD5=[34ff267b8d629411eccf2baa8fbbd0f7]
class progect1.SortByValue--><rect codeLine="50" fill="#FEFECE" filter="url(#f1tjd958z1xtez)" height="61.8359" id="progect1.SortByValue" style="stroke:#A80036;stroke-width:1.5;" width="156" x="422" y="7"/><ellipse cx="463.1" cy="23" fill="#ADD1B2" rx="11" ry="11" style="stroke:#A80036;stroke-width:1.0;"/><path d="M465.1,19.5 Q465.3031,19 465.5375,18.75 Q465.7719,18.5 466.0375,18.5 Q466.5063,18.5 466.8031,18.7813 Q467.1,19.0625 467.1,19.7188 L467.1,21.2813 Q467.1,21.9375 466.8188,22.2188 Q466.5375,22.5 466.1,22.5 Q465.7094,22.5 465.4594,22.3281 Q465.2094,22.1563 465.1,21.7031 Q465.0531,21.3906 464.8813,21.2188 Q464.5688,20.8906 464.0063,20.7031 Q463.4438,20.5 462.8813,20.5 Q462.1781,20.5 461.5844,20.7813 Q461.0063,21.0625 460.5531,21.6875 Q460.1,22.3125 460.1,23.1719 L460.1,24.0938 Q460.1,25.125 460.9438,25.8125 Q461.7875,26.5 463.2875,26.5 Q464.1781,26.5 464.8031,26.2969 Q465.1625,26.1875 465.5688,25.8281 Q465.8344,25.625 465.975,25.5625 Q466.1156,25.5 466.2875,25.5 Q466.6156,25.5 466.85,25.7656 Q467.1,26.0156 467.1,26.375 Q467.1,26.7188 466.7563,27.125 Q466.2563,27.7188 465.4594,28.0469 Q464.4125,28.5 463.1313,28.5 Q461.6313,28.5 460.4281,27.9063 Q459.4594,27.4375 458.7719,26.4219 Q458.1,25.4063 458.1,24.2031 L458.1,23.1094 Q458.1,21.8594 458.6938,20.7656 Q459.3031,19.6719 460.35,19.0938 Q461.4125,18.5 462.6,18.5 Q463.3188,18.5 463.9438,18.75 Q464.5688,19 465.1,19.5 Z " fill="#000000"/><text fill="#000000" font-family="sans-serif" font-size="12" lengthAdjust="spacing" textLength="66" x="482.9" y="27.9102">progect1.SortByValue</text><line style="stroke:#A80036;stroke-width:1.5;" x1="423" x2="577" y1="39" y2="39"/><line style="stroke:#A80036;stroke-width:1.5;" x1="423" x2="577" y1="47" y2="47"/><ellipse cx="433" cy="58" fill="#84BE84" rx="3" ry="3" style="stroke:#038048;stroke-width:1.0;"/><text fill="#000000" font-family="sans-serif" font-size="11" lengthAdjust="spacing" textLength="130" x="442" y="62.4189">compare(progect1.Value a, progect1.Value b)</text><!--MD5=[4b7878ea256981c432ee8388bc9b8b8b]
class progect1.Year--><rect codeLine="54" fill="#FEFECE" filter="url(#f1tjd958z1xtez)" height="89.5078" id="progect1.Year" style="stroke:#A80036;stroke-width:1.5;" width="161" x="604.5" y="129"/><ellipse cx="668.25" cy="145" fill="#ADD1B2" rx="11" ry="11" style="stroke:#A80036;stroke-width:1.0;"/><path d="M670.25,141.5 Q670.4531,141 670.6875,140.75 Q670.9219,140.5 671.1875,140.5 Q671.6563,140.5 671.9531,140.7813 Q672.25,141.0625 672.25,141.7188 L672.25,143.2813 Q672.25,143.9375 671.9688,144.2188 Q671.6875,144.5 671.25,144.5 Q670.8594,144.5 670.6094,144.3281 Q670.3594,144.1563 670.25,143.7031 Q670.2031,143.3906 670.0313,143.2188 Q669.7188,142.8906 669.1563,142.7031 Q668.5938,142.5 668.0313,142.5 Q667.3281,142.5 666.7344,142.7813 Q666.1563,143.0625 665.7031,143.6875 Q665.25,144.3125 665.25,145.1719 L665.25,146.0938 Q665.25,147.125 666.0938,147.8125 Q666.9375,148.5 668.4375,148.5 Q669.3281,148.5 669.9531,148.2969 Q670.3125,148.1875 670.7188,147.8281 Q670.9844,147.625 671.125,147.5625 Q671.2656,147.5 671.4375,147.5 Q671.7656,147.5 672,147.7656 Q672.25,148.0156 672.25,148.375 Q672.25,148.7188 671.9063,149.125 Q671.4063,149.7188 670.6094,150.0469 Q669.5625,150.5 668.2813,150.5 Q666.7813,150.5 665.5781,149.9063 Q664.6094,149.4375 663.9219,148.4219 Q663.25,147.4063 663.25,146.2031 L663.25,145.1094 Q663.25,143.8594 663.8438,142.7656 Q664.4531,141.6719 665.5,141.0938 Q666.5625,140.5 667.75,140.5 Q668.4688,140.5 669.0938,140.75 Q669.7188,141 670.25,141.5 Z " fill="#000000"/><text fill="#000000" font-family="sans-serif" font-size="12" lengthAdjust="spacing" textLength="25" x="688.75" y="149.9102">progect1.Year</text><line style="stroke:#A80036;stroke-width:1.5;" x1="605.5" x2="764.5" y1="161" y2="161"/><rect fill="none" height="6" style="stroke:#C82930;stroke-width:1.0;" width="6" x="612.5" y="169"/><text fill="#000000" font-family="sans-serif" font-size="11" lengthAdjust="spacing" textLength="61" x="624.5" y="176.4189">int yearCode</text><rect fill="none" height="6" style="stroke:#C82930;stroke-width:1.0;" width="6" x="612.5" y="182.8359"/><text fill="#000000" font-family="sans-serif" font-size="11" lengthAdjust="spacing" textLength="36" x="624.5" y="190.2549">int year</text><line style="stroke:#A80036;stroke-width:1.5;" x1="605.5" x2="764.5" y1="196.6719" y2="196.6719"/><ellipse cx="615.5" cy="207.6719" fill="#84BE84" rx="3" ry="3" style="stroke:#038048;stroke-width:1.0;"/><text fill="#000000" font-family="sans-serif" font-size="11" lengthAdjust="spacing" textLength="135" x="624.5" y="212.0908">progect1.Year(int yearCode, int year)</text><!--MD5=[b011715f32383682abc4f7bc0ddaaab9]
link progect1.Value to progect1.Product--><path codeLine="60" d="M478.67,219.48 C470.88,235.72 461.73,254.79 452.61,273.82 " fill="none" id="progect1.Value-to-progect1.Product" style="stroke:#A80036;stroke-width:1.0;stroke-dasharray:7.0,7.0;"/><polygon fill="#A80036" points="450.29,278.66,457.7959,272.2834,452.4574,274.1542,450.5866,268.8156,450.29,278.66" style="stroke:#A80036;stroke-width:1.0;"/><!--MD5=[9ee5238bf45d8b517f49927c0fa69c8e]
link progect1.Year to progect1.Product--><path codeLine="61" d="M622.04,219.23 C593.51,239.27 558.79,263.67 525.6,286.98 " fill="none" id="progect1.Year-to-progect1.Product" style="stroke:#A80036;stroke-width:1.0;stroke-dasharray:7.0,7.0;"/><polygon fill="#A80036" points="521.14,290.11,530.8034,288.2076,525.2308,287.235,526.2034,281.6624,521.14,290.11" style="stroke:#A80036;stroke-width:1.0;"/><!--MD5=[2b28faa0e4d1dfe94072149b4f8c56e2]
link progect1.Item to progect1.Product--><path codeLine="62" d="M333.33,219.48 C341.12,235.72 350.27,254.79 359.39,273.82 " fill="none" id="progect1.Item-to-progect1.Product" style="stroke:#A80036;stroke-width:1.0;stroke-dasharray:7.0,7.0;"/><polygon fill="#A80036" points="361.71,278.66,361.4134,268.8156,359.5426,274.1542,354.2041,272.2834,361.71,278.66" style="stroke:#A80036;stroke-width:1.0;"/><!--MD5=[45ffa2db3cac90feecec7460075bded9]
link progect1.Country to progect1.Platform--><path codeLine="63" d="M183.57,417.17 C199.12,446.32 219.99,485.42 238.59,520.28 " fill="none" id="progect1.Country-to-progect1.Platform" style="stroke:#A80036;stroke-width:1.0;stroke-dasharray:7.0,7.0;"/><polygon fill="#A80036" points="241.08,524.95,240.3692,515.1268,238.7248,520.5394,233.3122,518.8951,241.08,524.95" style="stroke:#A80036;stroke-width:1.0;"/><!--MD5=[172d154a4fa6f646b7c7c9986edb0ccb]
link progect1.Product to progect1.Platform--><path codeLine="64" d="M356.86,465.09 C347.11,483.36 336.93,502.43 327.36,520.38 " fill="none" id="progect1.Product-to-progect1.Platform" style="stroke:#A80036;stroke-width:1.0;stroke-dasharray:7.0,7.0;"/><polygon fill="#A80036" points="324.94,524.91,332.7159,518.8656,327.3011,520.5026,325.6641,515.0878,324.94,524.91" style="stroke:#A80036;stroke-width:1.0;"/><!--MD5=[10deda829a4b75b083a5bae6bcc74fb6]
link progect1.SortByValue to progect1.Value--><path codeLine="65" d="M500,69.07 C500,85.15 500,105.36 500,123.67 " fill="none" id="progect1.SortByValue-to-progect1.Value" style="stroke:#A80036;stroke-width:1.0;stroke-dasharray:7.0,7.0;"/><polygon fill="#A80036" points="500,128.78,504,119.78,500,123.78,496,119.78,500,128.78" style="stroke:#A80036;stroke-width:1.0;"/><!--MD5=[3685fb17d24c771df33ae458ca3563ca]
link progect1.Product_comparator to progect1.Product--><path codeLine="66" d="M152.01,205.09 C186.64,225.42 232.96,253.15 273,279 C277.52,281.91 282.1,284.91 286.71,287.95 " fill="none" id="progect1.Product_comparator-to-progect1.Product" style="stroke:#A80036;stroke-width:1.0;stroke-dasharray:7.0,7.0;"/><polygon fill="#A80036" points="290.96,290.76,285.6574,282.4604,286.7888,288.003,281.2462,289.1344,290.96,290.76" style="stroke:#A80036;stroke-width:1.0;"/><!--MD5=[3c2206fb3f29bb862a2a524cbebc6f15]
@startuml
'https://plantuml.com/class-diagram


class progect1.Platform {
+Map<progect1.Country, Set<progect1.Product>> sup
+getCountry(List<String> l)
+List<progect1.Country> country_list()
+progect1.Country getKey(Map<progect1.Country, Set<progect1.Product>> sup, progect1.Product p)
+numMinPaisesComQuantidadeProdSuperiorQ(int V)
+numMaxAnosConsecutivosCrescimentoFrutoF(String i)
+nMaxAnosConsecutivosCrescimentoFrutoFnoPaisX(Map<progect1.Year, progect1.Value> list)
+diferenceMaximaDasQuantidades(progect1.Country country)
}

class progect1.Country {
-areaCode
-String area
+progect1.Country(int areaCode, String area)
}

class progect1.Product {
-progect1.Year year
-progect1.Value value
-progect1.Item item
+progect1.Product(progect1.Year year, progect1.Value value, progect1.Item item)
+getYear()
+getValue()
+getItem()
+setYear(progect1.Year year)
+setValue(progect1.Value value)
+setItem(progect1.Item item)
}

class progect1.Product_comparator {
+compare(progect1.Product p1, progect1.Product p2)
}

class progect1.Item{
-int itemCode;
-String item;
+progect1.Item(int itemCode, String item)
}

class progect1.Value{
-String unit
-int value
+progect1.Value(int unit, int value)
}

class progect1.SortByValue{
+compare(progect1.Value a, progect1.Value b)
}

class progect1.Year{
-int yearCode
-int year
+progect1.Year(int yearCode, int year)
}

progect1.Value ..> progect1.Product
progect1.Year ..>progect1.Product
progect1.Item ..> progect1.Product
progect1.Country ..> progect1.Platform
progect1.Product ..> progect1.Platform
progect1.SortByValue ..> progect1.Value
progect1.Product_comparator ..> progect1.Product


@enduml

@startuml


class progect1.Platform {
+Map<progect1.Country, Set<progect1.Product>> sup
+getCountry(List<String> l)
+List<progect1.Country> country_list()
+progect1.Country getKey(Map<progect1.Country, Set<progect1.Product>> sup, progect1.Product p)
+numMinPaisesComQuantidadeProdSuperiorQ(int V)
+numMaxAnosConsecutivosCrescimentoFrutoF(String i)
+nMaxAnosConsecutivosCrescimentoFrutoFnoPaisX(Map<progect1.Year, progect1.Value> list)
+diferenceMaximaDasQuantidades(progect1.Country country)
}

class progect1.Country {
-areaCode
-String area
+progect1.Country(int areaCode, String area)
}

class progect1.Product {
-progect1.Year year
-progect1.Value value
-progect1.Item item
+progect1.Product(progect1.Year year, progect1.Value value, progect1.Item item)
+getYear()
+getValue()
+getItem()
+setYear(progect1.Year year)
+setValue(progect1.Value value)
+setItem(progect1.Item item)
}

class progect1.Product_comparator {
+compare(progect1.Product p1, progect1.Product p2)
}

class progect1.Item{
-int itemCode;
-String item;
+progect1.Item(int itemCode, String item)
}

class progect1.Value{
-String unit
-int value
+progect1.Value(int unit, int value)
}

class progect1.SortByValue{
+compare(progect1.Value a, progect1.Value b)
}

class progect1.Year{
-int yearCode
-int year
+progect1.Year(int yearCode, int year)
}

progect1.Value ..> progect1.Product
progect1.Year ..>progect1.Product
progect1.Item ..> progect1.Product
progect1.Country ..> progect1.Platform
progect1.Product ..> progect1.Platform
progect1.SortByValue ..> progect1.Value
progect1.Product_comparator ..> progect1.Product


@enduml

PlantUML version 1.2022.1(Tue Feb 01 18:19:58 GMT 2022)
(GPL source distribution)
Java Runtime: OpenJDK Runtime Environment
JVM: OpenJDK 64-Bit Server VM
Default Encoding: Cp1252
Language: pt
progect1.Country: PT
--></g></svg>